<?xml version="1.0" encoding="UTF-8"?>
<svg version="1.1" xmlns="http://www.w3.org/2000/svg" width="512" height="512">
<path d="M0 0 C0.73702148 0.35819824 1.47404297 0.71639648 2.23339844 1.08544922 C33.35162599 16.419984 62.70235759 39.55204832 84 67 C85.01789143 68.2776129 86.03614582 69.55493668 87.0546875 70.83203125 C94.88964276 80.75335513 101.76009426 91.00835742 108 102 C108.68425049 103.19786133 108.68425049 103.19786133 109.38232422 104.41992188 C121.36670012 125.64531286 129.75201368 148.21558686 135 172 C135.19819336 172.8854248 135.39638672 173.77084961 135.60058594 174.68310547 C147.64828953 229.95423133 139.65829391 288.33630949 115 339 C114.64180176 339.73702148 114.28360352 340.47404297 113.91455078 341.23339844 C98.56736823 372.37729199 75.43013874 401.64615782 48 423 C46.7212575 424.01941 45.4426186 425.03894997 44.1640625 426.05859375 C34.24339679 433.89131218 23.99002327 440.76101354 13 447 C11.80213867 447.68425049 11.80213867 447.68425049 10.58007812 448.38232422 C-10.65105422 460.36994183 -33.21482673 468.7350638 -57 474 C-57.87479004 474.19819336 -58.74958008 474.39638672 -59.65087891 474.60058594 C-122.6636629 488.53554059 -191.35813559 476.13091599 -246 442 C-255.38075944 435.86603579 -264.41710488 429.20803011 -273 422 C-273.78189697 421.3512793 -273.78189697 421.3512793 -274.57958984 420.68945312 C-286.91186479 410.44125884 -298.12409883 399.68611695 -308 387 C-309.01941 385.7212575 -310.03894997 384.4426186 -311.05859375 383.1640625 C-318.89131218 373.24339679 -325.76101354 362.99002327 -332 352 C-332.68425049 350.80213867 -332.68425049 350.80213867 -333.38232422 349.58007812 C-366.59606453 290.75560281 -372.93698357 220.71986901 -355 156 C-344.96738462 120.56899371 -326.59254364 87.37728755 -302 60 C-301.53464844 59.47970215 -301.06929687 58.9594043 -300.58984375 58.42333984 C-291.65057931 48.45191919 -282.4754331 39.37145644 -272 31 C-271.24332031 30.36449219 -270.48664063 29.72898438 -269.70703125 29.07421875 C-195.12377265 -32.92873117 -86.066548 -41.88905733 0 0 Z " fill="#56E0C5" transform="translate(368,29)"/>
<path d="M0 0 C0.73702148 0.35819824 1.47404297 0.71639648 2.23339844 1.08544922 C33.35162599 16.419984 62.70235759 39.55204832 84 67 C85.01789143 68.2776129 86.03614582 69.55493668 87.0546875 70.83203125 C94.88964276 80.75335513 101.76009426 91.00835742 108 102 C108.68425049 103.19786133 108.68425049 103.19786133 109.38232422 104.41992188 C121.36670012 125.64531286 129.75201368 148.21558686 135 172 C135.19819336 172.8854248 135.39638672 173.77084961 135.60058594 174.68310547 C147.64828953 229.95423133 139.65829391 288.33630949 115 339 C114.64180176 339.73702148 114.28360352 340.47404297 113.91455078 341.23339844 C98.56736823 372.37729199 75.43013874 401.64615782 48 423 C46.7212575 424.01941 45.4426186 425.03894997 44.1640625 426.05859375 C34.24339679 433.89131218 23.99002327 440.76101354 13 447 C11.80213867 447.68425049 11.80213867 447.68425049 10.58007812 448.38232422 C-10.65105422 460.36994183 -33.21482673 468.7350638 -57 474 C-57.87479004 474.19819336 -58.74958008 474.39638672 -59.65087891 474.60058594 C-122.6636629 488.53554059 -191.35813559 476.13091599 -246 442 C-255.38075944 435.86603579 -264.41710488 429.20803011 -273 422 C-273.78189697 421.3512793 -273.78189697 421.3512793 -274.57958984 420.68945312 C-286.91186479 410.44125884 -298.12409883 399.68611695 -308 387 C-309.01941 385.7212575 -310.03894997 384.4426186 -311.05859375 383.1640625 C-318.89131218 373.24339679 -325.76101354 362.99002327 -332 352 C-332.68425049 350.80213867 -332.68425049 350.80213867 -333.38232422 349.58007812 C-366.59606453 290.75560281 -372.93698357 220.71986901 -355 156 C-344.96738462 120.56899371 -326.59254364 87.37728755 -302 60 C-301.53464844 59.47970215 -301.06929687 58.9594043 -300.58984375 58.42333984 C-291.65057931 48.45191919 -282.4754331 39.37145644 -272 31 C-271.24332031 30.36449219 -270.48664063 29.72898438 -269.70703125 29.07421875 C-195.12377265 -32.92873117 -86.066548 -41.88905733 0 0 Z M-165 45 C-166.1456543 45.36351563 -166.1456543 45.36351563 -167.31445312 45.734375 C-179.10573971 49.51946149 -190.12028848 54.09840582 -201 60 C-202.16789062 60.61488281 -203.33578125 61.22976562 -204.5390625 61.86328125 C-217.1195652 68.72150112 -228.48890288 77.35829767 -238.96484375 87.1171875 C-240.65909563 88.68461438 -242.37699061 90.13489207 -244.1875 91.5625 C-247.85824195 94.74380969 -250.87708548 98.28960652 -254 102 C-254.76441406 102.8765625 -255.52882812 103.753125 -256.31640625 104.65625 C-262.91787696 112.34246942 -268.63682428 120.40759586 -274 129 C-274.3801123 129.60231445 -274.76022461 130.20462891 -275.15185547 130.82519531 C-285.83432439 147.98202827 -293.17716744 167.18873244 -297 187 C-297.3702787 188.52198972 -297.74442784 190.04305146 -298.125 191.5625 C-301.38509864 206.9897525 -301.31770814 222.30037164 -301 238 C-300.98195313 239.28777344 -300.96390625 240.57554687 -300.9453125 241.90234375 C-299.12775163 285.1496009 -277.76502224 329.01824566 -247 359 C-242 364 -242 364 -240.49707031 365.55566406 C-228.47259844 377.87564665 -214.05812997 386.85991982 -199 395 C-198.38060547 395.34256836 -197.76121094 395.68513672 -197.12304688 396.03808594 C-180.59718695 405.13941917 -162.39967785 410.26135849 -144 414 C-142.78828125 414.2475 -141.5765625 414.495 -140.328125 414.75 C-121.66958902 417.84542532 -101.64096538 416.87671959 -83 414 C-82.29375488 413.89816406 -81.58750977 413.79632813 -80.85986328 413.69140625 C-43.38054627 408.22268357 -6.17390718 389.42028371 20 362 C25 357 25 357 26.5534668 355.50146484 C50.39688873 332.25438403 66.18984656 299.25395147 73 267 C73.14711426 266.31518555 73.29422852 265.63037109 73.44580078 264.92480469 C79.75007128 235.42906333 79.26424355 202.86168182 70 174 C69.75765625 173.23623047 69.5153125 172.47246094 69.265625 171.68554688 C65.48053851 159.89426029 60.90159418 148.87971152 55 138 C54.38511719 136.83210938 53.77023437 135.66421875 53.13671875 134.4609375 C46.30080969 121.92136104 37.70069994 110.52366301 27.9375 100.11328125 C26 98 26 98 23.98046875 95.4375 C22.20252869 93.24926608 20.45866421 91.5007163 18.3125 89.6875 C16.19759054 87.88905509 14.1021189 86.09589214 12.078125 84.1953125 C-24.83336618 49.71597384 -74.23747286 36.77737423 -123.53613281 37.859375 C-137.62846988 38.43149131 -151.56960772 40.68900989 -165 45 Z " fill="#56E0C5" transform="translate(368,29)"/>
<path d="M0 0 C0.90024902 0.1762793 1.80049805 0.35255859 2.72802734 0.53417969 C37.69095827 7.64213052 71.98407443 25.36710053 96.6875 51.25 C97.8940625 52.4565625 97.8940625 52.4565625 99.125 53.6875 C99.970625 54.533125 100.81625 55.37875 101.6875 56.25 C102.51121094 57.00410156 102.51121094 57.00410156 103.3515625 57.7734375 C126.09796066 79.20934359 142.43093753 112.07020442 148.86328125 142.3828125 C149.43177538 145.05015463 150.03931892 147.66473459 150.72265625 150.30078125 C156.15586375 171.86635521 155.63933422 197.57503775 151.09326172 219.26220703 C150.70286549 221.17472575 150.3831063 223.10124974 150.06640625 225.02734375 C145.0301954 254.3374653 130.30057985 283.99207401 110.6875 306.25 C109.89988281 307.1471875 109.11226563 308.044375 108.30078125 308.96875 C104.5437611 313.19151645 100.69046779 317.25952197 96.6875 321.25 C95.99011719 321.99378906 95.29273438 322.73757813 94.57421875 323.50390625 C63.5780922 356.04158083 16.70861279 373.65835734 -27.55297852 375.37573242 C-48.38958184 375.86173075 -68.36543409 374.60516039 -88.3125 368.25 C-89.07916992 368.00765625 -89.84583984 367.7653125 -90.63574219 367.515625 C-102.40940065 363.73470989 -113.4866756 359.22697791 -124.3125 353.25 C-125.01503906 352.86440918 -125.71757812 352.47881836 -126.44140625 352.08154297 C-143.45079907 342.6525884 -157.59194477 330.99279276 -171.3125 317.25 C-172.31990234 316.31220703 -172.31990234 316.31220703 -173.34765625 315.35546875 C-202.9634451 287.33744885 -222.30464089 241.65332716 -224.21875 201.265625 C-224.25267127 199.92714836 -224.28353135 198.58859298 -224.3125 197.25 C-224.33828125 196.34185547 -224.3640625 195.43371094 -224.390625 194.49804688 C-224.91977909 173.66260458 -223.71767739 153.20459111 -217.3125 133.25 C-217.07015625 132.48623047 -216.8278125 131.72246094 -216.578125 130.93554688 C-212.79303851 119.14426029 -208.21409418 108.12971152 -202.3125 97.25 C-201.39017578 95.49816406 -201.39017578 95.49816406 -200.44921875 93.7109375 C-193.61330969 81.17136104 -185.01319994 69.77366301 -175.25 59.36328125 C-173.24079822 57.2244802 -173.24079822 57.2244802 -171.29296875 54.6875 C-169.51502869 52.49926608 -167.77116421 50.7507163 -165.625 48.9375 C-163.4968903 47.12841223 -161.39072801 45.3235437 -159.35546875 43.41015625 C-148.42359632 33.18896004 -135.44319313 25.312265 -122.3125 18.25 C-121.2296875 17.65574219 -120.146875 17.06148437 -119.03125 16.44921875 C-83.26616564 -2.39430117 -39.52953445 -7.77554761 0 0 Z M-154.3125 82.25 C-178.81610385 111.04563637 -192.82464463 146.46711051 -192.625 184.3125 C-192.62218018 185.08445709 -192.61936035 185.85641418 -192.61645508 186.65176392 C-192.38929062 228.10445652 -177.4280719 264.78383197 -149.3125 295.25 C-148.19294922 296.47589844 -148.19294922 296.47589844 -147.05078125 297.7265625 C-137.23665811 307.99420335 -125.61125304 316.23654247 -113.3125 323.25 C-112.72887695 323.58628418 -112.14525391 323.92256836 -111.54394531 324.26904297 C-87.9259692 337.77862683 -62.94468598 343.69414829 -35.8125 343.625 C-34.97245422 343.62412384 -34.13240845 343.62324768 -33.26690674 343.62234497 C7.45520368 343.48233819 43.84217573 327.79262891 73.6875 300.25 C74.50476563 299.50363281 75.32203125 298.75726563 76.1640625 297.98828125 C95.05615594 279.93064424 107.94542432 256.33861392 116 231.6875 C116.23050049 230.99342041 116.46100098 230.29934082 116.69848633 229.58422852 C120.85262005 216.14546101 122.18909763 202.66069992 122.07861328 188.66601562 C122.06250486 186.25072819 122.07858858 183.83711302 122.09765625 181.421875 C122.15464283 139.63851597 102.89646212 102.31276727 74.375 72.625 C56.71452698 55.52616746 35.08735677 43.12938365 11.8125 35.5 C10.96397461 35.21801758 10.11544922 34.93603516 9.24121094 34.64550781 C-4.66237343 30.28860024 -18.39316338 28.74438682 -32.89648438 28.85888672 C-35.31177181 28.87499514 -37.72538698 28.85891142 -40.140625 28.83984375 C-83.89084186 28.78017465 -125.16845045 50.1534487 -154.3125 82.25 Z " fill="#FDFEFE" transform="translate(291.3125,69.75)"/>
<path d="M0 0 C5.34123224 2.32618152 7.58999231 4.9704173 9.77734375 10.34765625 C10.63248735 16.22676852 8.92554441 20.46636114 5.77734375 25.34765625 C2.64933323 29.0449098 -0.76721751 32.44027498 -4.2043457 35.84692383 C-5.22887609 36.87688252 -6.25255537 37.90768842 -7.27545166 38.93927002 C-10.04111122 41.72307921 -12.81917025 44.49418964 -15.60026574 47.26256776 C-18.51647482 50.16860847 -21.4228652 53.08444326 -24.33085632 55.998703 C-29.21364586 60.88875663 -34.1047789 65.77034558 -39.00073242 70.6472168 C-44.65344248 76.2781484 -50.29158215 81.92336135 -55.9223941 87.57618409 C-60.76698141 92.43894614 -65.61934879 97.29384132 -70.47825783 102.14229316 C-73.37607627 105.03388966 -76.27115795 107.92808721 -79.159235 110.82941628 C-81.87447632 113.55624603 -84.59938141 116.2730406 -87.33192444 118.98252869 C-88.33063444 119.97596813 -89.32599052 120.97279299 -90.31763268 121.97328758 C-100.94639689 132.68812383 -100.94639689 132.68812383 -109.72265625 133.78515625 C-116.90038308 132.8879404 -121.68371081 128.32800661 -126.56933594 123.37329102 C-127.16050705 122.78577057 -127.75167816 122.19825012 -128.36076355 121.59292603 C-130.29613533 119.66560356 -132.22051645 117.72771731 -134.14453125 115.7890625 C-135.49446341 114.43861116 -136.84491531 113.08867918 -138.19586182 111.73924255 C-141.01797682 108.91703808 -143.83487518 106.08976056 -146.64794922 103.25854492 C-150.24962111 99.63415437 -153.86229594 96.02097573 -157.47871017 92.41130161 C-160.26550717 89.62784899 -163.04728684 86.83942649 -165.82749176 84.04939079 C-167.15779861 82.71524222 -168.48944759 81.38243048 -169.82247162 80.05099678 C-171.68448581 78.18935432 -173.53985556 76.32133348 -175.39355469 74.45141602 C-175.9421666 73.90528152 -176.4907785 73.35914703 -177.05601501 72.79646301 C-181.09780184 68.69822654 -184.64937015 64.9481539 -184.66015625 58.97265625 C-184.42461808 52.81794136 -182.14316503 49.17448167 -177.66015625 44.91015625 C-172.88665182 42.74038151 -168.39043951 42.5126869 -163.22265625 43.34765625 C-159.27481007 45.40867226 -156.37940992 47.94733132 -153.2487793 51.09448242 C-152.77987778 51.56309189 -152.31097626 52.03170135 -151.8278656 52.51451111 C-150.29190848 54.05185237 -148.76314217 55.59613657 -147.234375 57.140625 C-146.16578745 58.21294593 -145.09675507 59.28482375 -144.02729797 60.35627747 C-141.22319741 63.16798882 -138.425157 65.98565573 -135.62835693 68.80462646 C-132.76956165 71.68393528 -129.90504708 74.55754183 -127.04101562 77.43164062 C-121.4292983 83.06476279 -115.82397343 88.70419264 -110.22265625 94.34765625 C-106.96594796 92.91956045 -104.81320953 91.18202342 -102.31384277 88.66589355 C-101.54843674 87.90034653 -100.7830307 87.1347995 -99.99443054 86.34605408 C-99.16417862 85.50546951 -98.3339267 84.66488495 -97.47851562 83.79882812 C-96.59678177 82.91417374 -95.71504791 82.02951935 -94.80659485 81.11805725 C-92.89186082 79.19570943 -90.97903802 77.27165909 -89.06916809 75.34449768 C-86.04879414 72.29705814 -83.02078794 69.25728012 -79.99157715 66.21862793 C-73.56267147 59.76753025 -67.14223947 53.30802891 -60.72265625 46.84765625 C-53.79209659 39.87306045 -46.86011538 32.89991513 -39.91832781 25.93649149 C-36.90761624 22.9158168 -33.90184871 19.89033246 -30.89977264 16.86107635 C-28.59273129 14.53561115 -26.27923467 12.21658156 -23.96679688 9.89648438 C-23.13654495 9.05589981 -22.30629303 8.21531525 -21.45088196 7.34925842 C-20.3027729 6.20093788 -20.3027729 6.20093788 -19.13146973 5.02941895 C-18.46928688 4.36279488 -17.80710403 3.69617081 -17.12485504 3.00934601 C-12.05324861 -1.42101979 -6.35709376 -1.86579026 0 0 Z " fill="#FDFEFE" transform="translate(343.22265625,189.65234375)"/>
</svg>
